<svg width="20" height="20" viewBox="0 0 20 20" fill="none" xmlns="http://www.w3.org/2000/svg">
<path d="M10 2C11.15 2 12.15 2.64687 12.6531 3.59687C13.6812 3.25312 14.8156 3.53 15.6562 4.34313C16.4688 5.15625 16.6906 6.31875 16.4031 7.34688C17.3531 7.85 18 8.85 18 10C18 11.15 17.3531 12.15 16.4031 12.6531C16.7188 13.6812 16.4688 14.8156 15.6562 15.6562C14.8156 16.4688 13.6812 16.6906 12.6531 16.4031C12.15 17.3531 11.15 18 10 18C8.85 18 7.85 17.3531 7.34688 16.4031C6.31875 16.7188 5.15625 16.4688 4.34313 15.6562C3.53 14.8156 3.28125 13.6812 3.59687 12.6531C2.64687 12.15 2 11.15 2 10C2 8.85 2.64687 7.85 3.59687 7.34688C3.25312 6.31875 3.53 5.15625 4.34313 4.34313C5.15625 3.53 6.31875 3.28125 7.34688 3.59687C7.85 2.64687 8.85 2 10 2ZM13.0031 9.00313C13.3219 8.7375 13.3219 8.2625 13.0031 7.96875C12.7375 7.67812 12.2625 7.67812 11.9688 7.96875L9 10.9406L7.75313 9.71875C7.4875 9.42812 7.0125 9.42812 6.71875 9.71875C6.42812 10.0125 6.42812 10.4875 6.71875 10.7531L8.46875 12.5031C8.7625 12.8219 9.2375 12.8219 9.50313 12.5031L13.0031 9.00313Z" fill="black"/>
</svg>
