<svg width="20" height="20" viewBox="0 0 20 20" fill="none" xmlns="http://www.w3.org/2000/svg">
<path d="M9.35313 12.3531C9.15938 12.55 8.84062 12.55 8.64687 12.3531L6.89687 10.6031C6.7 10.4094 6.7 10.0906 6.89687 9.89687C7.09062 9.7 7.40938 9.7 7.60313 9.89687L9 11.2937L12.1469 8.14687C12.3406 7.95 12.6594 7.95 12.8531 8.14687C13.05 8.34062 13.05 8.65938 12.8531 8.85313L9.35313 12.3531ZM12.7219 3.42594C13.7531 3.23969 14.8594 3.54469 15.6562 4.34313C16.4563 5.14062 16.7594 6.24687 16.575 7.27812C17.4344 7.84687 18 8.87188 18 9.97188C18 11.1281 17.4344 12.125 16.575 12.7219C16.7594 13.7531 16.4563 14.8594 15.6562 15.6562C14.8594 16.4563 13.7531 16.7594 12.7219 16.575C12.125 17.4344 11.1281 18 10 18C8.87187 18 7.84687 17.4344 7.27812 16.575C6.24687 16.7594 5.14062 16.4563 4.34313 15.6562C3.54469 14.8594 3.23969 13.7531 3.42594 12.7219C2.565 12.125 2 11.1281 2 9.97188C2 8.87188 2.565 7.84687 3.42594 7.27812C3.23969 6.24687 3.54469 5.14062 4.34313 4.34313C5.14062 3.54469 6.24687 3.23969 7.27812 3.42594C7.84687 2.565 8.87188 2 9.97188 2C11.1281 2 12.125 2.565 12.7219 3.42594ZM7.7625 4.59625L7.36562 4.475C6.57188 4.23125 5.675 4.42406 5.05031 5.05031C4.42406 5.675 4.23125 6.57188 4.475 7.36562L4.59625 7.7625L4.23125 7.95625C3.49781 8.34375 3 9.11563 3 9.97188C3 10.8844 3.49781 11.6281 4.23125 12.0437L4.59625 12.2375L4.475 12.6344C4.23125 13.4281 4.42406 14.3219 5.05031 14.95C5.675 15.575 6.57188 15.7687 7.36562 15.525L7.7625 15.4031L7.95625 15.7688C8.34375 16.5031 9.11562 17 10 17C10.8844 17 11.6281 16.5031 12.0437 15.7688L12.2375 15.4031L12.6344 15.525C13.4281 15.7687 14.3219 15.575 14.95 14.95C15.575 14.3219 15.7687 13.4281 15.525 12.6344L15.4031 12.2375L15.7688 12.0437C16.5031 11.6281 17 10.8844 17 9.97188C17 9.11563 16.5031 8.34375 15.7688 7.95625L15.4031 7.7625L15.525 7.36562C15.7687 6.57188 15.575 5.675 14.95 5.05C14.325 4.42375 13.4281 4.23125 12.6344 4.475L12.2375 4.59625L12.0437 4.23125C11.6281 3.49781 10.8844 2.97188 10 2.97188C9.11562 2.97188 8.34375 3.49781 7.95625 4.23125L7.7625 4.59625Z" fill="black"/>
</svg>
