<svg width="15" height="16" viewBox="0 0 15 16" fill="none" xmlns="http://www.w3.org/2000/svg">
<path d="M14.7146 8.8693C14.7146 9.85934 14.5231 10.789 14.1376 11.6583C13.752 12.5276 13.2322 13.281 12.5731 13.9209C11.914 14.5608 11.1379 15.0679 10.2425 15.4398C9.34711 15.8141 8.38952 16 7.36974 16C6.34997 16 5.39237 15.8141 4.49696 15.4398C3.60155 15.0655 2.82055 14.556 2.15396 13.9088C1.48738 13.2617 0.962568 12.5035 0.577044 11.6342C0.191519 10.7649 0 9.83761 0 8.84515C0 7.8527 0.191519 6.94718 0.577044 6.08029C0.962568 5.21099 1.48987 4.45518 2.1664 3.80561C2.84045 3.15847 3.62145 2.64896 4.5094 2.27468C5.39486 1.90039 6.34997 1.71446 7.36974 1.71446C7.63588 1.71446 7.88709 1.72895 8.12338 1.76034C8.35967 1.79173 8.59347 1.82795 8.82976 1.87383V0.297013C8.82976 0.0990047 8.93174 0 9.1357 0H14.4311C14.6201 0 14.7146 0.0990047 14.7146 0.297013V8.86689V8.8693ZM14.1251 0.572292H12.9487V8.84515C12.9487 9.59131 12.8044 10.2964 12.5134 10.958C12.2224 11.6197 11.8219 12.1968 11.312 12.6846C10.8022 13.1724 10.2102 13.5611 9.53366 13.8509C8.85961 14.1407 8.13582 14.2855 7.36726 14.2855C6.59869 14.2855 5.87241 14.1407 5.19091 13.8509C4.5094 13.5611 3.91494 13.1724 3.41252 12.6846C2.91009 12.1968 2.50964 11.6221 2.21117 10.958C1.9127 10.294 1.76347 9.59131 1.76347 8.84515C1.76347 8.099 1.9127 7.39873 2.21117 6.74193C2.50964 6.08753 2.91258 5.51524 3.42247 5.02747C3.93235 4.53969 4.52432 4.15092 5.20085 3.86115C5.8749 3.57139 6.59621 3.4265 7.36726 3.4265C7.86968 3.4265 8.3547 3.48687 8.82728 3.61002V2.44371C8.59099 2.39783 8.35718 2.35919 8.12089 2.33021C7.8846 2.29882 7.63339 2.28434 7.36726 2.28434C6.442 2.28434 5.56648 2.45578 4.7432 2.79867C3.91992 3.14156 3.2011 3.61002 2.58923 4.20405C1.97737 4.79807 1.48987 5.49592 1.12921 6.2952C0.768563 7.09448 0.586993 7.94446 0.586993 8.84274C0.586993 9.74102 0.763588 10.6127 1.11678 11.4144C1.46997 12.2137 1.9525 12.9116 2.56436 13.5056C3.17623 14.0996 3.89504 14.5681 4.71833 14.911C5.54161 15.2538 6.42459 15.4253 7.36726 15.4253C8.30993 15.4253 9.18793 15.2538 10.0037 14.911C10.8196 14.5681 11.5334 14.0996 12.1453 13.5056C12.7571 12.9116 13.2397 12.2137 13.5929 11.4144C13.946 10.6152 14.1226 9.75792 14.1226 8.84274V0.569876L14.1251 0.572292ZM12.3592 0.572292H11.1827V8.84515C11.1827 9.36432 11.0832 9.84727 10.8892 10.2964C10.6927 10.7455 10.4216 11.1391 10.0784 11.4724C9.73512 11.8056 9.3297 12.0736 8.86707 12.2717C8.40444 12.4697 7.9045 12.5687 7.37223 12.5687C6.83996 12.5687 6.36489 12.4745 5.89977 12.2837C5.43714 12.093 5.02923 11.8298 4.67604 11.4941C4.32285 11.1585 4.04428 10.7673 3.84033 10.3181C3.63637 9.869 3.53439 9.38606 3.53439 8.86689C3.53439 8.34772 3.63637 7.86477 3.84033 7.41563C4.04428 6.9665 4.31788 6.5729 4.66361 6.23966C5.00934 5.90643 5.41227 5.6384 5.8749 5.44039C6.33753 5.24238 6.83498 5.14337 7.36974 5.14337C7.9045 5.14337 8.37459 5.23513 8.82976 5.41865V4.20646C8.37459 4.06882 7.88709 4.00121 7.36974 4.00121C6.67829 4.00121 6.02911 4.12677 5.41476 4.37791C4.80041 4.62904 4.26813 4.97676 3.81297 5.41865C3.3578 5.86055 2.99963 6.3773 2.74096 6.97374C2.48228 7.57018 2.35295 8.20042 2.35295 8.87172C2.35295 9.54301 2.48726 10.1733 2.75339 10.7697C3.01953 11.3637 3.38018 11.8781 3.83535 12.3127C4.29052 12.7474 4.8203 13.0903 5.42471 13.3414C6.02911 13.5925 6.6758 13.7181 7.36726 13.7181C8.05871 13.7181 8.70789 13.5925 9.32224 13.3414C9.9341 13.0903 10.4639 12.7425 10.9116 12.3006C11.3593 11.8587 11.7125 11.342 11.9712 10.7455C12.2298 10.1491 12.3592 9.51887 12.3592 8.84757V0.574707V0.572292ZM9.41675 0.572292V8.84515C9.41675 9.40779 9.22026 9.88591 8.82728 10.2747C8.43429 10.6634 7.94927 10.8566 7.36726 10.8566C6.78524 10.8566 6.32012 10.6659 5.91967 10.2843C5.51922 9.90281 5.31029 9.43194 5.29537 8.86689C5.29537 8.30426 5.49435 7.82614 5.8948 7.43737C6.29525 7.0486 6.78524 6.85542 7.36726 6.85542C7.94927 6.85542 8.44921 7.05343 8.82728 7.44944V6.05614C8.6084 5.94989 8.37708 5.86538 8.13333 5.80501C7.88958 5.74464 7.63588 5.71325 7.36726 5.71325C6.91209 5.71325 6.48925 5.79777 6.09627 5.96438C5.70328 6.13341 5.36253 6.35557 5.07152 6.63809C4.78051 6.92061 4.54919 7.25626 4.37757 7.64262C4.20346 8.03139 4.1189 8.43948 4.1189 8.86447C4.1189 9.28946 4.20595 9.71446 4.37757 10.0863C4.54919 10.4606 4.78548 10.7914 5.08395 11.0812C5.38242 11.371 5.72815 11.5955 6.11865 11.7549C6.51164 11.9143 6.92701 11.994 7.36726 11.994C7.8075 11.994 8.22287 11.9143 8.61586 11.7549C9.00885 11.5955 9.35209 11.371 9.65056 11.0812C9.94903 10.7914 10.1803 10.4606 10.3445 10.0863C10.5087 9.71204 10.5907 9.30637 10.5907 8.86447V0.567463H9.41427L9.41675 0.572292ZM8.40444 9.86176C8.68799 9.57923 8.82728 9.24117 8.82728 8.84515V8.73166C8.79494 8.38153 8.64571 8.07727 8.37957 7.81648C8.11343 7.5581 7.77517 7.42771 7.36726 7.42771C6.95935 7.42771 6.61113 7.56535 6.32012 7.83821C6.02911 8.11349 5.88485 8.44672 5.88485 8.84274C5.88485 9.23876 6.02911 9.57682 6.32012 9.85934C6.61113 10.1419 6.95935 10.2819 7.36726 10.2819C7.77517 10.2819 8.12089 10.1419 8.40195 9.85934L8.40444 9.86176Z" fill="white"/>
</svg>
