<svg width="14" height="16" viewBox="0 0 14 16" fill="none" xmlns="http://www.w3.org/2000/svg">
<g clip-path="url(#clip0_5548_138302)">
<path d="M14 10.5V1.5C14 0.671562 13.3281 0 12.5 0H3C1.34312 0 0 1.34312 0 3V13C0 14.6569 1.34312 16 3 16H13C13.5522 16 14 15.5522 14 15.0281C14 14.6619 13.7935 14.3556 13.5 14.1812V11.6388C13.8062 11.3375 14 10.9438 14 10.5ZM7.37187 7.6L7.13847 7.53897C6.44816 7.35487 5.01347 6.97303 5.28003 5.57897C5.34694 5.23022 5.52844 4.93991 5.80034 4.71834C5.41875 4.42812 5.15312 3.99687 5.28125 3.33125C5.47069 2.33906 6.545 1.83063 8.01656 2.03938C8.27731 2.0765 8.57812 2.14925 8.96094 2.26887C9.22462 2.35141 9.37219 2.63169 9.29 2.89544C9.20797 3.15862 8.92469 3.30606 8.66406 3.22419C8.33313 3.12069 8.08219 3.05916 7.87594 3.02984C7.00688 2.90388 6.34188 3.10797 6.26375 3.51953C6.20809 3.80909 6.25692 4.02141 7.39656 4.32484L7.62409 4.38441C8.56534 4.62806 9.98847 4.99566 9.71878 6.40691C9.65188 6.75659 9.47 7.04753 9.19753 7.26909C9.59222 7.56675 9.84534 7.99409 9.71878 8.65691C9.55766 9.50222 8.75597 9.99566 7.61441 9.99566C7.41422 9.99566 7.20316 9.98052 6.98347 9.94928C6.57812 9.89062 6.15313 9.75313 5.775 9.63125L5.59688 9.57187C5.33419 9.48787 5.18875 9.20656 5.2725 8.94344C5.35747 8.68025 5.63875 8.53375 5.90125 8.61969L6.08484 8.67878C6.42078 8.78816 6.80172 8.91219 7.12016 8.95562C7.99609 9.07819 8.65734 8.87847 8.73547 8.46625C8.78438 8.06875 8.55625 7.90625 7.37187 7.6ZM12 14H3C2.44781 14 2 13.5522 2 13C2 12.4478 2.44781 12 3 12H12V14ZM7.37187 5.35C7.37187 5.35 7.07794 5.27206 7.04938 5.26431C6.77812 5.30312 6.33125 5.41563 6.2625 5.76875C6.20684 6.05831 6.25567 6.27062 7.39531 6.57406C7.39531 6.57406 7.83656 6.68947 7.94844 6.72038C8.22041 6.68388 8.66781 6.57109 8.73531 6.2185C8.78438 5.81875 8.55625 5.65625 7.37187 5.35Z" fill="white"/>
</g>
<defs>
<clipPath id="clip0_5548_138302">
<rect width="14" height="16" fill="white"/>
</clipPath>
</defs>
</svg>
