<svg width="13" height="16" viewBox="0 0 13 16" fill="none" xmlns="http://www.w3.org/2000/svg">
<path d="M12.2618 3.36193L11.8863 2.98648L9.26455 0.364414C9.26428 0.364138 9.26428 0.364138 9.264 0.364138L9.05159 0.151448C8.95366 0.0537931 8.82372 0 8.68552 0H0.679448C0.352 0 0 0.25269 0 0.807172V10.7586V15.3206V15.4483C0 15.6792 0.232 15.904 0.506483 15.9749C0.520552 15.9788 0.534069 15.984 0.548414 15.9868C0.591448 15.9953 0.63531 16 0.679448 16H11.7343C11.7785 16 11.8223 15.9953 11.8654 15.9868C11.8797 15.984 11.8932 15.9788 11.9073 15.9749C12.1818 15.904 12.4138 15.6792 12.4138 15.4483V15.3206V10.7586V3.856C12.4138 3.64441 12.3881 3.488 12.2618 3.36193ZM9.10345 0.983448L11.4303 3.31034H9.10345V0.983448ZM0.679448 15.4483C0.659862 15.4483 0.642207 15.4414 0.624828 15.4348C0.582069 15.4143 0.551724 15.3713 0.551724 15.3206V11.3103H11.8621V15.3206C11.8621 15.3713 11.8317 15.4143 11.789 15.4348C11.7716 15.4414 11.7539 15.4483 11.7343 15.4483H0.679448ZM0.551724 10.7586V0.807172C0.551724 0.74731 0.560828 0.551724 0.679448 0.551724H8.56772C8.55862 0.586483 8.55172 0.622345 8.55172 0.659586V3.80138C8.40497 3.66897 8.21269 3.58621 8 3.58621C7.84745 3.58621 7.72414 3.70979 7.72414 3.86207C7.72414 4.01434 7.84745 4.13793 8 4.13793C8.15228 4.13793 8.27586 4.26179 8.27586 4.41379V5.51724C8.27586 5.84828 8.42538 6.14234 8.6571 6.34483C8.42538 6.54731 8.27586 6.84138 8.27586 7.17241V8.27586C8.27586 8.42786 8.15228 8.55172 8 8.55172C7.84745 8.55172 7.72414 8.67531 7.72414 8.82759C7.72414 8.97986 7.84745 9.10345 8 9.10345C8.45628 9.10345 8.82759 8.73214 8.82759 8.27586V7.17241C8.82759 6.86814 9.07503 6.62069 9.37931 6.62069C9.53186 6.62069 9.65517 6.4971 9.65517 6.34483C9.65517 6.19255 9.53186 6.06897 9.37931 6.06897C9.07503 6.06897 8.82759 5.82152 8.82759 5.51724V4.41379C8.82759 4.2011 8.74455 4.00883 8.61241 3.86207H11.7542C11.7914 3.86207 11.8273 3.85517 11.8621 3.84607C11.8621 3.85021 11.8623 3.85186 11.8623 3.856V10.7586H0.551724Z" fill="black"/>
<path d="M2.71837 14.1876C2.71313 14.3106 2.67119 14.3983 2.59202 14.4496C2.51285 14.5009 2.40664 14.5269 2.2734 14.5269C2.22071 14.5269 2.16416 14.5208 2.10375 14.5081C2.04333 14.4954 1.9854 14.4811 1.93023 14.4648C1.87506 14.4485 1.82402 14.4309 1.7774 14.4121C1.73078 14.3934 1.69492 14.3749 1.66982 14.3575L1.47754 14.6629C1.52802 14.7007 1.58926 14.7346 1.66237 14.7647C1.73547 14.7947 1.81133 14.8218 1.8905 14.8458C1.96968 14.8698 2.04637 14.8872 2.12057 14.8985C2.19478 14.9098 2.25961 14.9156 2.31478 14.9156C2.4254 14.9156 2.53299 14.9048 2.63726 14.8836C2.74154 14.8623 2.83395 14.8245 2.9145 14.7705C2.99506 14.7164 3.05906 14.6447 3.10678 14.5556C3.1545 14.4665 3.1785 14.3561 3.1785 14.2256V12.0607H2.71837V14.1876Z" fill="black"/>
<path d="M5.12654 13.5349C5.03992 13.472 4.94612 13.4184 4.84543 13.3746C4.74475 13.3307 4.65178 13.2855 4.56626 13.2389C4.48075 13.1922 4.4093 13.1384 4.35137 13.0767C4.29344 13.0149 4.26475 12.9338 4.26475 12.8333C4.26475 12.7931 4.27468 12.7509 4.29481 12.707C4.31495 12.6631 4.34254 12.6234 4.37785 12.5881C4.41316 12.5528 4.45316 12.5235 4.49868 12.4995C4.54419 12.4755 4.59164 12.4612 4.64212 12.4562C4.73261 12.4488 4.80681 12.4474 4.86475 12.4524C4.92268 12.4573 4.96902 12.4662 5.00433 12.4789C5.03964 12.4915 5.06668 12.504 5.08544 12.5167C5.10419 12.5293 5.1213 12.5393 5.13647 12.5467C5.13895 12.5442 5.1464 12.5315 5.15909 12.5089C5.17178 12.4863 5.18695 12.4579 5.20433 12.424C5.22171 12.39 5.24075 12.3536 5.26088 12.3147C5.28102 12.2758 5.29868 12.24 5.31357 12.2071C5.24047 12.1594 5.1453 12.1247 5.02695 12.1034C4.90861 12.0822 4.79164 12.0714 4.67633 12.0714C4.56323 12.0714 4.45564 12.0888 4.35385 12.1241C4.25206 12.1594 4.16295 12.2104 4.08599 12.2769C4.00902 12.3434 3.94833 12.4245 3.90309 12.5202C3.85785 12.616 3.83468 12.7255 3.83468 12.8485C3.83468 12.9842 3.86337 13.0973 3.9213 13.1878C3.97923 13.2783 4.05206 13.3569 4.14006 13.4234C4.22806 13.4899 4.3224 13.5478 4.42281 13.5969C4.52323 13.646 4.61702 13.6949 4.70392 13.744C4.79081 13.7931 4.86281 13.8477 4.92075 13.9081C4.97868 13.9685 5.00737 14.0413 5.00737 14.1269C5.00737 14.2678 4.96654 14.374 4.88488 14.4455C4.80323 14.5169 4.68544 14.5531 4.53233 14.5531C4.48185 14.5531 4.42806 14.5478 4.37012 14.5379C4.31219 14.528 4.25454 14.5147 4.19661 14.4982C4.13868 14.4816 4.08295 14.4642 4.02888 14.4455C3.97481 14.4267 3.9304 14.4071 3.89509 14.387L3.81592 14.7114C3.85868 14.7492 3.90971 14.7812 3.96875 14.8077C4.02778 14.8342 4.08985 14.8549 4.1555 14.87C4.22088 14.8852 4.28571 14.896 4.34971 14.902C4.41371 14.9081 4.47606 14.9114 4.53647 14.9114C4.67744 14.9114 4.80295 14.8902 4.91357 14.8474C5.02419 14.8047 5.11716 14.7475 5.19275 14.6758C5.26833 14.6041 5.32654 14.5211 5.36819 14.427C5.40985 14.3329 5.43054 14.2353 5.43054 14.1346C5.43054 13.9862 5.40185 13.8648 5.34392 13.7707C5.28599 13.6767 5.21316 13.5978 5.12654 13.5349Z" fill="black"/>
<path d="M7.82652 12.4336C7.72224 12.3153 7.60031 12.2256 7.46073 12.1638C7.32114 12.102 7.16831 12.0714 7.00252 12.0714C6.83673 12.0714 6.6839 12.102 6.54431 12.1638C6.40473 12.2256 6.2828 12.3153 6.17852 12.4336C6.07424 12.552 5.99231 12.6995 5.93328 12.8767C5.87424 13.0538 5.84473 13.2595 5.84473 13.4932C5.84473 13.7269 5.87424 13.9332 5.93328 14.1117C5.99231 14.2902 6.07424 14.4386 6.17852 14.5567C6.2828 14.6747 6.40473 14.7641 6.54431 14.8245C6.6839 14.8849 6.83673 14.915 7.00252 14.915C7.16831 14.915 7.32114 14.8849 7.46073 14.8245C7.60031 14.7641 7.72224 14.675 7.82652 14.5567C7.9308 14.4383 8.01273 14.2902 8.07176 14.1117C8.1308 13.9332 8.16031 13.7269 8.16031 13.4932C8.16031 13.2595 8.1308 13.0538 8.07176 12.8767C8.01273 12.6995 7.9308 12.552 7.82652 12.4336ZM7.63976 13.9856C7.60197 14.12 7.54983 14.2289 7.48335 14.312C7.41686 14.395 7.34128 14.4549 7.25714 14.491C7.173 14.5271 7.08417 14.5456 6.99121 14.5456C6.90073 14.5456 6.81438 14.5263 6.73273 14.4871C6.65107 14.448 6.57797 14.3867 6.51397 14.3023C6.44997 14.2179 6.39949 14.1095 6.36307 13.976C6.32666 13.8424 6.30707 13.6819 6.30459 13.4932C6.30707 13.2995 6.32721 13.1362 6.365 13.003C6.4028 12.8698 6.45493 12.7611 6.52142 12.6767C6.5879 12.5922 6.66349 12.5329 6.74762 12.4976C6.83176 12.4623 6.92059 12.4449 7.01355 12.4449C7.10404 12.4449 7.19038 12.4637 7.27204 12.5015C7.35369 12.5393 7.4268 12.6008 7.4908 12.6863C7.5548 12.7718 7.60528 12.8805 7.64169 13.0127C7.67811 13.1448 7.69769 13.3051 7.70018 13.4935C7.69769 13.6871 7.67755 13.8513 7.63976 13.9856Z" fill="black"/>
<path d="M10.3479 14.0328L9.25799 12.1169H8.79785V14.8965H9.25799V12.9807L10.3479 14.8965H10.8081V12.1169H10.3479V14.0328Z" fill="black"/>
<path d="M3.86222 5.51722V4.41377C3.86222 4.26177 3.98581 4.13791 4.13808 4.13791C4.29063 4.13791 4.41394 4.01432 4.41394 3.86204C4.41394 3.70977 4.29063 3.58618 4.13808 3.58618C3.68181 3.58618 3.3105 3.95749 3.3105 4.41377V5.51722C3.3105 5.82149 3.06305 6.06894 2.75877 6.06894C2.60622 6.06894 2.48291 6.19253 2.48291 6.3448C2.48291 6.49708 2.60622 6.62066 2.75877 6.62066C3.06305 6.62066 3.3105 6.86811 3.3105 7.17239V8.27584C3.3105 8.73211 3.68181 9.10342 4.13808 9.10342C4.29063 9.10342 4.41394 8.97984 4.41394 8.82756C4.41394 8.67528 4.29063 8.5517 4.13808 8.5517C3.98581 8.5517 3.86222 8.42784 3.86222 8.27584V7.17239C3.86222 6.84135 3.7127 6.54728 3.48098 6.3448C3.7127 6.14232 3.86222 5.84825 3.86222 5.51722Z" fill="black"/>
<path d="M6.06907 5.79316C6.2976 5.79316 6.48286 5.6079 6.48286 5.37937C6.48286 5.15084 6.2976 4.96558 6.06907 4.96558C5.84053 4.96558 5.65527 5.15084 5.65527 5.37937C5.65527 5.6079 5.84053 5.79316 6.06907 5.79316Z" fill="black"/>
<path d="M6.06883 6.89661C5.91628 6.89661 5.79297 7.02019 5.79297 7.17247V8.00005C5.79297 8.15233 5.91628 8.27592 6.06883 8.27592C6.22138 8.27592 6.34469 8.15233 6.34469 8.00005V7.17247C6.34469 7.02019 6.22138 6.89661 6.06883 6.89661Z" fill="black"/>
</svg>
