<svg width="14" height="16" viewBox="0 0 14 16" fill="none" xmlns="http://www.w3.org/2000/svg">
<g clip-path="url(#clip0_5548_138013)">
<path d="M9.06323 3.48512C9.3987 3.58848 9.72056 3.68822 10.0433 3.78795C10.0578 3.79248 10.0733 3.79339 10.0878 3.79792C10.989 4.11253 10.9491 4.16512 10.9627 4.93306C11.0162 7.90147 10.9482 10.8681 10.8149 13.8328C10.804 14.0668 10.7804 14.2998 10.7732 14.5337C10.765 14.7975 10.6417 14.987 10.4332 15.1384C9.78675 15.6063 9.05326 15.8538 8.27262 15.9417C6.75941 16.1122 5.27611 15.8892 3.81004 15.5256C3.15906 15.3642 2.51805 15.1656 1.86797 14.9997C1.46904 14.8982 1.30222 14.6606 1.25416 14.2508C1.042 12.4538 0.952244 10.6523 1.02478 8.84712C1.08643 7.32393 1.22696 5.80436 1.28136 4.28117C1.29587 3.87408 1.52525 3.77707 1.79635 3.65376C2.74109 3.22219 3.723 2.8967 4.75387 2.76705C5.09478 2.72444 5.45744 2.81419 5.8056 2.8695C6.47562 2.97649 7.14383 3.09526 7.81023 3.22401C8.00607 3.26209 8.06953 3.20406 8.11305 3.01457C8.2971 2.21399 8.5002 1.41703 8.69604 0.619169C8.8003 0.196665 9.03966 0.029839 9.4676 0.00354584C9.89101 -0.0218407 10.2646 0.091492 10.6417 0.266478C11.5502 0.688982 12.4668 1.09154 13.3808 1.50226C13.7325 1.66002 13.7824 1.767 13.6473 2.08071C13.5204 2.37537 13.2865 2.4742 12.99 2.34364C12.0108 1.91297 11.0334 1.47778 10.056 1.04258C9.84477 0.948287 9.67342 1.00813 9.6163 1.23207C9.42771 1.97644 9.25001 2.72444 9.06414 3.48512H9.06323ZM7.15834 10.5489C7.14111 10.5489 7.12298 10.5489 7.10575 10.5489C7.10575 10.1717 7.10938 9.79367 7.10575 9.4165C7.09397 8.20883 7.07583 7.00025 7.06858 5.79258C7.06767 5.61034 7.00239 5.54596 6.82559 5.51786C6.37861 5.44714 5.93344 5.36463 5.49099 5.26762C4.33409 5.01375 3.179 4.75354 2.02573 4.48608C1.84712 4.44437 1.77096 4.47792 1.76371 4.66469C1.75645 4.83786 1.73107 5.01013 1.71928 5.1833C1.59235 7.11993 1.4636 9.05837 1.53976 11.0004C1.58147 12.0558 1.68664 13.1084 1.7628 14.162C1.7764 14.3542 1.85528 14.4757 2.05928 14.5283C2.67218 14.6851 3.27692 14.8773 3.89255 15.0197C4.89985 15.2527 5.91168 15.4639 6.94981 15.5138C7.12298 15.522 7.1801 15.4784 7.17103 15.3071C7.15743 15.0587 7.15834 14.8093 7.15834 14.56C7.15743 13.2236 7.15834 11.8872 7.15834 10.5498V10.5489ZM7.54639 15.5056C8.49022 15.4467 9.35427 15.2735 10.1023 14.7332C10.1893 14.6706 10.2546 14.5264 10.2618 14.4149C10.3017 13.8582 10.3307 13.2997 10.3416 12.7412C10.387 10.3413 10.425 7.94046 10.464 5.54052C10.4649 5.47796 10.4504 5.4145 10.4368 5.29573C10.3861 5.39818 10.3552 5.44714 10.3362 5.50063C10.1512 6.01833 9.96355 6.53513 9.78675 7.05555C9.7251 7.23598 9.63443 7.33934 9.42862 7.31849C9.29443 7.30489 9.15662 7.30942 9.02153 7.31758C8.82478 7.32937 8.72686 7.25139 8.7178 7.0474C8.71508 6.98121 8.67246 6.90505 8.62441 6.85518C8.27353 6.49252 7.91812 6.13439 7.5609 5.77807C7.5337 5.75087 7.48836 5.7418 7.43306 5.71551C7.47114 8.98402 7.50831 12.2262 7.5473 15.5056H7.54639ZM3.79009 3.45883C3.79281 3.48694 3.79463 3.51504 3.79735 3.54315C3.82455 3.55131 3.85084 3.56128 3.87895 3.56763C5.0703 3.86411 6.25984 4.16512 7.4521 4.45525C8.0514 4.60122 8.6507 4.85418 9.26995 4.52234C9.30259 4.50512 9.34158 4.50149 9.37694 4.4888C9.54014 4.43077 9.70243 4.37275 9.86563 4.31381C9.63896 4.19504 9.42408 4.13157 9.20921 4.06267C9.0315 4.00555 8.88281 3.98197 8.86014 4.24128C8.85561 4.29296 8.78308 4.3528 8.72777 4.38181C8.52649 4.4888 8.31705 4.51418 8.09855 4.41898C7.8338 4.30384 7.80116 4.24853 7.86735 3.98016C7.88276 3.91669 7.89092 3.85142 7.90361 3.78251C7.86281 3.768 7.83652 3.7535 7.80751 3.74806C6.85733 3.58758 5.91077 3.39264 4.95425 3.28475C4.57707 3.24214 4.17814 3.39536 3.79009 3.45883ZM2.334 3.97925L2.33944 4.03547C2.37298 4.04544 2.40562 4.05813 2.43917 4.06539C2.99042 4.19051 3.53895 4.32469 4.09292 4.43621C5.0975 4.6384 6.10208 4.8433 7.1121 5.00922C7.36687 5.05093 7.64431 4.9521 7.91087 4.91765C7.90905 4.89136 7.90724 4.86506 7.90543 4.83786C7.86553 4.82426 7.82564 4.80704 7.78484 4.79616C6.35141 4.44256 4.91435 4.10528 3.48727 3.72811C3.02396 3.60571 2.71026 3.86864 2.334 3.97925ZM9.10222 6.90686C9.33976 6.9794 9.45491 6.91049 9.52472 6.68926C9.66254 6.25225 9.83117 5.82612 9.98531 5.39365C10.0642 5.17333 10.1367 4.95029 10.2265 4.68917C9.83843 4.81973 9.49571 4.92853 9.15843 5.05455C9.10222 5.07541 9.03603 5.17242 9.03785 5.23226C9.05145 5.78804 9.07865 6.34383 9.10222 6.90686ZM8.64617 6.31572C8.6643 6.30847 8.68244 6.30031 8.69966 6.29305C8.68062 5.93674 8.66068 5.58042 8.64073 5.19962C8.33337 5.27125 8.05775 5.33471 7.77124 5.4009C8.08041 5.72367 8.36329 6.01924 8.64617 6.31572Z" fill="white"/>
<path d="M2.85775 13.9728C3.37092 12.4378 3.88409 10.9028 4.41176 9.3243C3.55406 9.23998 2.72265 9.15748 1.89034 9.07497C1.87674 9.04958 1.86223 9.02329 1.84863 8.9979C2.87497 7.83103 3.92035 6.68138 4.96573 5.53174C4.99203 5.54171 5.01741 5.55168 5.04371 5.56166C5.03645 5.62875 5.04461 5.7031 5.01923 5.76203C4.75176 6.38491 4.47886 7.00506 4.20686 7.62613C4.18328 7.67962 4.16334 7.73492 4.12526 7.8274C4.23224 7.8274 4.31112 7.8274 4.39 7.8274C5.08451 7.8274 5.77991 7.82559 6.47442 7.82922C6.55874 7.82922 6.64396 7.86186 6.72828 7.87908C6.69655 7.96703 6.67932 8.06404 6.63218 8.14201C5.69288 9.67608 4.75176 11.2092 3.80883 12.7406C3.5722 13.1259 3.33193 13.5094 3.08804 13.8902C3.05449 13.9437 2.99012 13.9773 2.94025 14.0199C2.91215 14.0045 2.88404 13.9882 2.85684 13.9728H2.85775Z" fill="white"/>
<path d="M9.54188 5.84963C9.54188 6.02281 9.55185 6.19688 9.53553 6.36915C9.53009 6.42536 9.45575 6.47523 9.41223 6.52782C9.36871 6.47614 9.29164 6.42718 9.28711 6.37278C9.25991 6.02009 9.24268 5.66558 9.23634 5.31108C9.23543 5.25486 9.30524 5.19774 9.34242 5.14062C9.39138 5.19684 9.47388 5.2467 9.48385 5.30926C9.51196 5.48697 9.51106 5.67011 9.52194 5.85054C9.52828 5.85054 9.53553 5.85054 9.54188 5.85054V5.84963Z" fill="white"/>
</g>
<defs>
<clipPath id="clip0_5548_138013">
<rect width="13.7164" height="16" fill="white"/>
</clipPath>
</defs>
</svg>
