<svg width="14" height="16" viewBox="0 0 14 16" fill="none" xmlns="http://www.w3.org/2000/svg">
<g clip-path="url(#clip0_5548_138046)">
<path d="M7.49062 3.41875C7.15625 3.00313 6.50937 2.34688 5.90625 1.7625C5.7625 1.62188 5.625 1.49062 5.49687 1.36875C5.44687 1.41562 5.39688 1.46562 5.34375 1.51875C4.84688 2.00937 4.1875 2.70625 3.52813 3.52187C2.86875 4.34062 2.225 5.2625 1.75312 6.20312C1.275 7.15312 1 8.06875 1 8.89062C1 12.3406 3.64375 15 7 15C10.3187 15 13 12.3406 13 8.89062C13 7.41562 12.1125 5.78125 11.0781 4.4125C10.5781 3.75 10.075 3.19375 9.69375 2.8C9.39375 3.05937 9.15313 3.29063 9.06563 3.40313L8.29062 4.41875L7.49375 3.42188L7.49062 3.41875ZM0 8.89062C0 4.75 5.5 0 5.5 0C5.5 0 6.7 1.10313 7.59688 2.04063C7.8625 2.31875 8.1 2.57813 8.27188 2.79375C8.41875 2.60313 8.70313 2.33438 8.9875 2.0875C9.37188 1.75313 9.75 1.45625 9.75 1.45625C9.75 1.45625 14 5.25 14 8.89062C14 12.8812 10.8812 16 7 16C3.075 16 0 12.8781 0 8.89062ZM5.86562 5.6875C5.95625 5.8 6.6375 6.66562 7.29375 7.5L8.1875 8.6375L8.2125 8.66875L9.39688 7.29375L9.80313 6.82188L10.1781 7.31875C10.3375 7.53125 10.4406 7.74063 10.5281 7.90938L10.5312 7.9125C11.425 9.55625 11.0406 11.675 9.49687 12.7531L9.4875 12.7594C8.74375 13.25 7.94687 13.5 7.05312 13.5C5.95937 13.5 4.94687 13.1469 4.2 12.4656C3.44687 11.7812 3 10.7906 3 9.5875C3 8.94687 3.20312 8.36562 3.5625 7.75625C3.9125 7.15625 4.43125 6.49063 5.0875 5.6875L5.47813 5.20625L5.86562 5.6875ZM7.80312 9.76562V9.7625L7.79688 9.75625L7.775 9.72812L7.69375 9.625L7.40312 9.25625L6.50938 8.11875C6.13125 7.6375 5.74688 7.15 5.47188 6.8C5.0125 7.37813 4.66875 7.84375 4.425 8.25625C4.125 8.775 4 9.17812 4 9.5875C4 10.5281 4.34375 11.2437 4.875 11.7281C5.40938 12.2187 6.17187 12.5 7.05312 12.5C7.74062 12.5 8.34375 12.3125 8.92188 11.9312C9.975 11.1906 10.3063 9.70625 9.69375 8.48125L8.575 9.78125L8.17813 10.2437L7.80312 9.76562L8.19687 9.45625C7.80312 9.76563 7.80312 9.76562 7.80312 9.76562Z" fill="white"/>
</g>
<defs>
<clipPath id="clip0_5548_138046">
<rect width="14" height="16" fill="white"/>
</clipPath>
</defs>
</svg>
