<svg width="15" height="16" viewBox="0 0 15 16" fill="none" xmlns="http://www.w3.org/2000/svg">
<path d="M8.15312 15.2336C7.45625 15.6367 6.6 15.6367 5.90312 15.2336L1.125 12.4742C0.428125 12.0711 0 11.3305 0 10.5242V5.00859C0 4.20547 0.428125 3.46172 1.125 3.05859L5.90312 0.302344C6.6 -0.100781 7.45625 -0.100781 8.15312 0.302344L12.9312 3.06172C13.6281 3.46484 14.0562 4.20547 14.0562 5.01172V10.5273C14.0562 11.3305 13.6281 12.0742 12.9312 12.4773L8.15312 15.2336ZM2.99375 5.08047C2.90625 4.85859 2.67188 4.73047 2.43438 4.77422C2.19688 4.81797 2.02813 5.02422 2.02813 5.26484V10.2648C2.02813 10.5398 2.25312 10.7648 2.52813 10.7648C2.80313 10.7648 3.02812 10.5398 3.02812 10.2648V7.86484L4.0625 10.4555C4.15 10.6773 4.3875 10.8055 4.62187 10.7617C4.85625 10.718 5.02812 10.5117 5.02812 10.2711V5.27109C5.02812 4.99609 4.80312 4.77109 4.52812 4.77109C4.25312 4.77109 4.02812 4.99609 4.02812 5.27109V7.67422L2.99375 5.08359V5.08047ZM6.02812 5.26484V7.76484V10.2648C6.02812 10.5398 6.25312 10.7648 6.52812 10.7648C6.80312 10.7648 7.02812 10.5398 7.02812 10.2648V8.26484H8.02812C8.30312 8.26484 8.52812 8.03984 8.52812 7.76484C8.52812 7.48984 8.30312 7.26484 8.02812 7.26484H7.02812V5.76484H8.02812C8.30312 5.76484 8.52812 5.53984 8.52812 5.26484C8.52812 4.98984 8.30312 4.76484 8.02812 4.76484H6.52812C6.25312 4.76484 6.02812 4.98984 6.02812 5.26484ZM9.52812 4.76484C9.25313 4.76484 9.02812 4.98984 9.02812 5.26484C9.02812 5.53984 9.25313 5.76484 9.52812 5.76484H10.0281V10.2648C10.0281 10.5398 10.2531 10.7648 10.5281 10.7648C10.8031 10.7648 11.0281 10.5398 11.0281 10.2648V5.76484H11.5281C11.8031 5.76484 12.0281 5.53984 12.0281 5.26484C12.0281 4.98984 11.8031 4.76484 11.5281 4.76484H9.52812Z" fill="white"/>
</svg>
