<svg width="16" height="16" viewBox="0 0 16 16" fill="none" xmlns="http://www.w3.org/2000/svg">
<path d="M5.05204 14.5137C11.0499 14.5137 14.3299 9.54862 14.3299 5.24306C14.3299 5.10204 14.327 4.96165 14.3207 4.8219C14.9574 4.36198 15.5108 3.78804 15.9473 3.13468C15.363 3.39418 14.7343 3.56887 14.0747 3.64764C14.7479 3.24426 15.2648 2.60616 15.5086 1.84547C14.8786 2.21868 14.1809 2.48993 13.438 2.63637C12.8429 2.00305 11.9958 1.60693 11.0578 1.60693C9.25702 1.60693 7.79676 3.06612 7.79676 4.86477C7.79676 5.12045 7.82537 5.36916 7.88131 5.60771C5.17118 5.47145 2.76803 4.17491 1.15971 2.20343C0.879671 2.68494 0.718193 3.24427 0.718193 3.84109C0.718193 4.97152 1.29387 5.96946 2.16929 6.55327C1.6343 6.53675 1.13174 6.39001 0.692487 6.14576C0.692007 6.15943 0.692005 6.17276 0.692005 6.18737C0.692005 7.76534 1.81601 9.08282 3.30806 9.38136C3.03405 9.456 2.74577 9.49602 2.44822 9.49602C2.23843 9.49602 2.03403 9.47539 1.83536 9.43726C2.2505 10.7319 3.4543 11.674 4.8815 11.7003C3.76544 12.5744 2.35953 13.095 0.831527 13.095C0.568647 13.095 0.308948 13.0801 0.0537109 13.0499C1.49686 13.9742 3.21046 14.5135 5.05222 14.5135" fill="white"/>
</svg>
