<svg xmlns="http://www.w3.org/2000/svg" viewBox="0 0 132 132" width="180" height="180">
    <path
        d="M47.6,54.5V42.6c0-14.2,6.9-23.2,18.5-23.2s18.3,8.8,18.3,23.3V54.6c0,14.5-6.7,23.2-18.3,23.2S47.6,68.7,47.6,54.5Zm30.6.4V42.1c0-10.6-4.6-17-12.2-16.9S53.6,31.7,53.6,42.1V54.86c0,10.4,4.6,16.9,12.4,16.9,7.6.1,12.2-6.3,12.2-16.9Z" />
    <path
        d="M47.7,89.4V77.5c0-14.2,6.9-23.2,18.4-23.2s18.3,8.8,18.3,23.2V89.4c0,14.5-6.7,23.2-18.3,23.2S47.7,103.6,47.7,89.4Zm30.6.4V77c0-10.6-4.6-17-12.2-16.9S53.8,66.6,53.8,77V89.8c0,10.4,4.6,16.9,12.3,16.9S78.3,100.4,78.3,89.8Z" />
    <path
        d="M66,132a66,66,0,1,1,66-66h0A66.08,66.08,0,0,1,66,132ZM66,5.7A60.3,60.3,0,1,0,126.3,66h0A60.43,60.43,0,0,0,66,5.7Z" />
</svg>